<svg xmlns="http://www.w3.org/2000/svg" viewBox="0 0 184 112"><defs><style>.a{fill:#1d1d1b;fill-rule:evenodd;}</style></defs><path class="a" d="M68.15,37.83a.21.21,0,0,1-.42,0h0a.21.21,0,0,1,.42,0Z"/><path class="a" d="M68.7,37.39c0,.09-.1.16-.21.16s-.21-.07-.21-.16.1-.16.21-.16S68.7,37.31,68.7,37.39Z"/><path class="a" d="M73.28,36.67c-.06.29-.15.52-.2.51s0-.25,0-.55.15-.53.2-.52A1.06,1.06,0,0,1,73.28,36.67Z"/><path class="a" d="M73.18,37.78c0,.18-.06.32-.13.32s-.14-.14-.14-.32.06-.32.14-.32S73.18,37.61,73.18,37.78Z"/><path class="a" d="M72,36c.22-.11-.37-.14-.41-.23s0-.41.27-.41c0,0,.55.09.5.28,0,0,.19.13,0,.45,0,0,.23.46.09.51s-.28.27-.55.09c0,0-.82.27-.69-.23,0,0,.64-.37.83-.46Z"/><path class="a" d="M75.75,39.8a2.78,2.78,0,0,0-.28-1.06s-.64-1.1-1-1.14c0,0-.09-.55.41-.32a2.12,2.12,0,0,1,.92,2.06c-.23,1.33-.09.46-.09.46Z"/><path class="a" d="M76.2,38.7s.14-.69.46,0c0,0,.32.64,0,.87,0,0,0,.14-.23-.23Z"/><path class="a" d="M77.35,38.65s-.41-.41,0-.45a.37.37,0,0,1,.35.37.28.28,0,0,1,0,.13s.18.78-.14.82c0,0-.41.19-.27-.41A.41.41,0,0,0,77.35,38.65Z"/><path class="a" d="M77.85,12.32c-.22,2.94,3,4.62,3.49,4.86h.06s-.86.24-3.18-1.84L77,16.23s-1.1.24-.37-3.91c0,0-2.93-1.71.86-2h.12Z"/><path class="a" d="M79.36,11.52c0,.57-1,1-2.07.91s-2-.58-2-1.15,1-1,2.07-.92S79.36,10.94,79.36,11.52Z"/><path class="a" d="M77.61,10.36S79,8.29,84,8.17a2.23,2.23,0,0,0,1.34-.25Z"/><path class="a" d="M74.92,13.91S71.75,15,71.5,15.62Z"/><path class="a" d="M74.56,12.69s-2.57.49-2.32.73Z"/><path class="a" d="M75.17,12a13.19,13.19,0,0,0-4.77-.12Z"/><path class="a" d="M95.07,3.89l1.1,1.35c.61.48.37-1.59.37-1.59s1.22,1.83-.12,2.07l-.74-.48L95,5.6c1.1-.24.12-1.71.12-1.71a1.9,1.9,0,0,1-.73-2.32Z"/><path class="a" d="M95.67,5.1a.24.24,0,0,0,0-.12A.24.24,0,0,0,95.67,5.1Z"/><path class="a" d="M96.36,5.5a.79.79,0,0,0,.22-.06c.1-.35.44-.51.23-.9Z"/><path class="a" d="M95.9,5.13c-.09-.09-.18-.14-.28-.23Z"/><path class="a" d="M96.75,4s.19-.06-.43-1l.13.88Z"/><path class="a" d="M80.28,13.05a.28.28,0,0,1-.27.28.3.3,0,0,1-.28-.28.28.28,0,0,1,.28-.27A.27.27,0,0,1,80.28,13.05Z"/><path class="a" d="M81.93,14.11a.28.28,0,0,1-.33.22.28.28,0,0,1-.22-.22.28.28,0,1,1,.55-.11A.2.2,0,0,1,81.93,14.11Z"/><path class="a" d="M80.05,14.65a.27.27,0,0,1-.26.28h0a.28.28,0,1,1-.11-.55.2.2,0,0,1,.11,0A.27.27,0,0,1,80.05,14.65Z"/><path class="a" d="M81.34,17.18S81,14.84,82.89,15.3c0,0,1.7,1.14,1.24,2.06l-.18.27s-1.93-.55-5.09,1.1c0,0-.46.41-1.6,0,0,0-2.84-3.34-5-.87,0,0-.27.23.41.37,0,0,1.1,0,2.25,1.83,0,0,.68,1,2.84.78,0,0,.73.32-.28.64,0,0-1.19.41-1,1.33A1.51,1.51,0,0,1,78,21.48s.14-1.06.55-1a1.11,1.11,0,0,1,.55.28s.41-.56.64-.28c0,0,.28.69-.59.6,0,0-.19.68.73.32,0,0,1.24.14,1-.92,0,0-.1.28-.37.05,0,0-.23-.55.41-.23,0,0,.09-1.06.41-.92l.65.74s.18-.74.41-.51c0,0,.82.18-.28.87,0,0,2.93,1.06,3.9-2.93,0,0,.41-2.52-2.61-2.84,0,0-2.84-.13-2.06,2.48Zm3.11,4.25a.14.14,0,0,1-.14.14.13.13,0,0,1-.13-.13h0a.14.14,0,0,1,.27,0Zm-.55-2.29c.37.28-.18.64-.18.64-.32.23-.51,0-.51,0v-.64Z"/><path class="a" d="M77.08,23.58s-.64,0-.51-.59c0,0,.92-.27,1-.59,0,0,.55-.14.19.27l-.64.91Z"/><path class="a" d="M77.21,23.4s0,.23.28.09a2.83,2.83,0,0,0,.91-.91s.46-.37.23.09c0,0-.27.37-.41.59a.75.75,0,0,0,0,.55s-.1.46-.83.05c0,0-.41-.37-.27-.41l.13-.05Z"/><path class="a" d="M88.57,11.92V12l-.33.47s-.64.27,0,.36c0,0,.55-.09,1.56.78a2.18,2.18,0,0,0,2.79-1s1.79-.5,1.61-2.15c0,0-.32-.28-.28.45a1.42,1.42,0,0,1-1,1.2s-.64-.14,0-.64l-.59-.05s-.55-.55.37-.73c0,0,.36-.55-.32-.37,0,0-.42.59-.55.59s-.6,0-.32-.41c0,0-.14-.18.77-.73,0,0,.55-.41-.36-.18,0,0-.51.5-1.15,1,0,0-1.1.5-.87-.51A1.91,1.91,0,0,1,91.41,9s1-.55-.41-.41c0,0-1.79.64-1.65,2.2l-.78,1.11Zm1.28.45s1,2-.5.27c0,0-.18-1.05.41-1.33,0,0,1.15-.78,2.29,1.1,0,0,.14.82-1,.09a7.94,7.94,0,0,0-.78-.5.48.48,0,0,0-.46.37Z"/><path class="a" d="M81,11.08s-.6-.09-.27-.36a4.43,4.43,0,0,1,3.52-1.15s1,.14,0,.46c0,0-1,.55-1,.69s2-.14,2,.09c0,0,1.1.27.09.64l-.6.41s2.11.05,2.11.23c0,0,1,.37-.14.6L85,13.51s-1.19.37-.18-.36l1.28-.65H84s-1.37.13-.18-.65l.59-.31s.55-.28-.18-.37c0,0-2.15-.09-2.52.55,0,0-1.46.5-.09-.51l1.1-.82s-1.6.14-1.74.73Z"/><path class="a" d="M85.55,14.24s-1.19.37-.14-.45c0,0,2-.56,2.52-.23,0,0,.92.36,0,.68l-1.1.55s-1.33.64-.32-.32c0,0,1.32-.59-.1-.5Z"/><path class="a" d="M94,12.32s-.82.87.23.27A1.78,1.78,0,0,0,95,11.36s-.14-1.15-.28,0c0,0-.23.82-.78,1Z"/><path class="a" d="M86.78,15.39s-.68.64.19.37l.73-.33s1-.32-.32-.32Z"/><path class="a" d="M87.33,16.17s-.91.23,0,.41c0,0,1-.14,1-.23s.78-.41-.32-.37Z"/><path class="a" d="M88,17.27s1-.19-.1-.28l-.59.05s-.78.23,0,.27Z"/><path class="a" d="M88.48,17.72H87.2s-.69.5.23.36h.91s.78-.14.14-.28Z"/><path class="a" d="M87.84,18.87s1-.23-.19-.41l-.59.13s-.78.37.18.46Z"/><path class="a" d="M81.56,7.19s1.1.37.1-.37C81.66,6.82,80.51,6.82,81.56,7.19Z"/><path class="a" d="M81.84,6.05s.73.13.73.36c0,0,1,.09.05-.46A2.15,2.15,0,0,0,82,5.63s-.78-.09-.14.42Z"/><path class="a" d="M82.07,4.81a4.34,4.34,0,0,1,1.1.69s1,.5,0-.51a1.44,1.44,0,0,0-.78-.45s-.87-.23-.27.27Z"/><path class="a" d="M94.8,7.14s-.78.69.14.23C94.94,7.37,95.67,6.73,94.8,7.14Z"/><path class="a" d="M95.49,7.78a2.15,2.15,0,0,0-.46.33s-.55.54.27.32l.37-.32S96.17,7.7,95.49,7.78Z"/><path class="a" d="M96.45,8.34s-.46.31-.51.45-.68.6.37.23a1.81,1.81,0,0,0,.37-.41S97,8.2,96.45,8.34Z"/><path class="a" d="M98,9.07s-.92.82-1.15.69c0,0-1,.82.42.41a5.13,5.13,0,0,0,1-.73s.55-.55-.23-.37Z"/><path class="a" d="M98.69,10.07s-.32.46-.64.46c0,0-.87.6.18.28,0,0,.23,0,.64-.46C98.87,10.35,99.61,10.17,98.69,10.07Z"/><path class="a" d="M99.29,11s1.23-.6.22.27c0,0-.77.5-.82.19C98.69,11.46,98.37,11.18,99.29,11Z"/><path class="a" d="M102.54,13.6s.78-.09-.09-.41c0,0-.78.18-.78.41,0,0-.32.46.36.28C102,13.88,102.4,13.56,102.54,13.6Z"/><path class="a" d="M102.35,14.34s1-.1.14.36C102.49,14.7,101.49,14.88,102.35,14.34Z"/><path class="a" d="M98,7.05c-.1.31-.51.32-.51.32-1-.18,0-.41,0-.41s.73-.5.55.09Z"/><path class="a" d="M98.92,7.42s1,.09.09.23c0,0-.55.32-.5.41s-.83.23-.28-.32A3.08,3.08,0,0,1,98.92,7.42Z"/><path class="a" d="M100.62,8.29s-1.42,0-1.24.32c0,0-.14.41.55,0,0,0,1.23,0,.69-.36Z"/><path class="a" d="M101,9.25s1-.18.36.23c0,0-.09.23-.77.23C100.59,9.71,99.76,9.57,101,9.25Z"/><path class="a" d="M103,10.31s-1.28-.24-1.47.09c0,0-.64.45.33.23a1.29,1.29,0,0,1,1-.05s.82.05.18-.27Z"/><path class="a" d="M101.3,6A3.66,3.66,0,0,1,105,4s1.65.41-.09.64A11.61,11.61,0,0,0,101.84,6s-1,.59-.55-.1Zm1.24-.82h0c.18.09.91-.23.91-.23,1-.46-.09-.36-.09-.36a2.26,2.26,0,0,0-.82.54Z"/><path class="a" d="M105.06,3.62A6.26,6.26,0,0,0,100,6s-.82.87-.32-.55A5.14,5.14,0,0,1,102,2.33s0-.31-.82.28c0,0-2.38,1.56-2.75,3.3,0,0-.14,1-.23.18A2.79,2.79,0,0,0,97.5,3s-.59-1.21-.5-1.44c0,0,.37-.78.32.46a2.28,2.28,0,0,0,1,1.37S98.51,3,98,2.52a1.74,1.74,0,0,1-.13-.64s.13-.37.41.55A1,1,0,0,0,98.6,3s.23.51.05.74L99.1,4a6,6,0,0,1,5-2.37,6.74,6.74,0,0,0-3.85,3.06s-.5,1,.6.23a4.66,4.66,0,0,1,5.26-1.24s-.09.23-.54.1Z"/><path class="a" d="M105.33,6.23s-2.33.41-2.56,1.37a1.14,1.14,0,0,1-.51.32s-.5.73.74.37a3.93,3.93,0,0,1,4.62,0s1.14.78.6-.87c0,0-.64-2.2-4.4-1.56a22.89,22.89,0,0,0-2.47,1s-1.1.74.36.32c0,0,2.34-1.23,3.62-.91Zm1.19,1.1a4.43,4.43,0,0,0-2.2-.1s-1,.28-.13-.27a3,3,0,0,1,2.24,0S107.53,7.6,106.52,7.33Zm.64-.37h0a5.84,5.84,0,0,1-.68-.41c-.6-.14,0-.19,0-.19a3.13,3.13,0,0,1,.83.33c.91.82-.15.31-.15.31Z"/><path class="a" d="M106.25,9.57a3.46,3.46,0,0,0-2.06-.18,1.35,1.35,0,0,1-1.28-.05s-.14-.41.32-.18a1.13,1.13,0,0,0,1.19-.23s2.19-.32,2.88,1.24c0,0,.41.73-.23.59,0,0-1.69.14-1.74.32,0,0-1.28.32,0-.5a1.67,1.67,0,0,1,.83-.09s.77-.14-.19-.28a3,3,0,0,0-1.33.14s-1.14,0,0-.5a2.56,2.56,0,0,1,1.29,0s.78.27.32-.23Z"/><path class="a" d="M111.51,10.94s.37-1.28-.5-.22a2.94,2.94,0,0,1-3.62.59s-1-.32-.18.37c0,0,.41.41-.23.27,0,0-1.15-.68-.46.09a2.23,2.23,0,0,0,1.28.51s.74,0,0,.18c0,0-.09.14-1.51-.14,0,0-.64,0-.09.28a2.73,2.73,0,0,0,2.47.14s.78,0,0,.45a5.16,5.16,0,0,1-1.79.19s-.78.09-.28.46a3.3,3.3,0,0,0,2.75-.6s.64-.23.27.32c0,0-2.19,2.29-4.76-.68A2.38,2.38,0,0,0,102.31,11a2.85,2.85,0,0,0-2,.64s-.78,1,.42.23c0,0,2.38-1.6,3.39.68a2.46,2.46,0,0,1-1.66,3.06l-.27.06s-.14.14.51.23a3.27,3.27,0,0,1,1,.82s.91.51.22-.32c0,0-.82-.73,0-.64,0,0,.6.6.41.64,0,0,.87.32.19-.55,0,0-.83-.78-.1-.69a7.18,7.18,0,0,0,.78.78s.28.51.32-.41c0,0,.32-.78,1.24.14,0,0,.87,1-.09-.46,0,0,0-.78.78,0a4.89,4.89,0,0,1,.87,1s.82.87,0-.55c0,0-.64-.87.19-.51,0,0,1.37,1.24,1,2.16,0,0,.46.5-1.56.27,0,0-.27.37,1.24.37,0,0,1.6-.14,1-.51,0,0-.27-.09-.27-.59,0,0-.09-1.6-.92-1.92,0,0,1.69-1.61,1.84-2.29a4.78,4.78,0,0,0,.63-1.75Z"/><path class="a" d="M110.55,17.45s.6.78-.09.82a5.15,5.15,0,0,1-2.61.55s-.68-.32-.09.23a4.53,4.53,0,0,0,3.25-.82s1-.64.82-.09c0,0-.27,1-2.74,1.6,0,0-1,.18,0,.27,0,0,2.06-.5,2.65-1.32,0,0,.23-.74.51-.23a2.07,2.07,0,0,1-.87,1.42,3.27,3.27,0,0,0,1.78-2.16,11.19,11.19,0,0,0,.18-2s0-.51-.5.09Z"/><path class="a" d="M85.27,6.73s-2.47,0-.09.46a.67.67,0,0,0,.94-.1L86.18,7s4.17,1,4.9-.42c0,0,.87-1,.41-1.41,0,0-2-1.47-1.78-2.06,0,0,.27-1,.54-.23a3.57,3.57,0,0,0,1.93,1.55,7.58,7.58,0,0,1,.41.92s-.23.82.41.69c0,0,.78-1.33.28-2.07,0,0-1.15-1.19-.78-1.23,0,0,0-.42.59.32,0,0,.65.55.65.87,0,0-.28,1.51,0,1.6,0,0,.5.6.41-1.33,0,0,.23-.64-.87-1.42,0,0-.73-.87-.5-1.14,0,0-.09-.64-.46.14a1.23,1.23,0,0,0,.23,1.69s1.24,1.83.23,1.24c0,0-.09-.64-1.28-1.24,0,0-1.74-.46-.69-2.47,0,0-.09-.5-.74.68,0,0-1.09,1.61-.27,2.29,0,0,2.52,1.56,1,2.34,0,0-1.55,1.28-4.76.09a.51.51,0,0,0-.71.14.67.67,0,0,0-.07.18Z"/><path class="a" d="M109.91,22s.64,1.74.14,2.11c0,0-.55.41-.46-.74,0,0,.32-2.38-.32-1.28,0,0-.41,1.83-.41,2.15A7,7,0,0,0,109.5,26s.23.69.82-.69a2.77,2.77,0,0,0,.69-2.06l-.09-1.64-.23,1.92c-.32.27,0-1.42-.14-.55,0,0-.41-2-.64-1Z"/><path class="a" d="M95.3,21.07s-.14-2-.41-.05a6.78,6.78,0,0,0,.32,1.6,2.34,2.34,0,0,1-.64,2.16s-.78,1.41.14.68a3.16,3.16,0,0,0,1-2.42s-.69-1.88-.42-2Z"/><path class="a" d="M100.66,16.4s1-.55,0,.55a6.91,6.91,0,0,0-.64,5.63s.68,2.52-.74,3.94c0,0-.64.68-.55-.33,0,0,.92-.27.92-2.33,0,0,0-.78-.37-.14a8.59,8.59,0,0,1-1.46,3.12s-.87.64-.37-.55c0,0,1.15-.32,1.88-4.44,0,0-.55-3.62,1.28-5.45Z"/><path class="a" d="M101.81,17.91s.77-1.65-.19-.6a3.41,3.41,0,0,0-.5,2.29s1,4.54-1.15,6.46c0,0-.64,1,.23.78,0,0,2.52-.78,2.61-5.09,0,0-.18-.91-.27.1,0,0,.14,2.15-1.1,3.2,0,0-.64.82-.23-.37,0,0,1.05-1.1.32-4.48A2.87,2.87,0,0,1,101.81,17.91Z"/><path class="a" d="M107.8,27.48c.15,0,.28.59.6.55,0,0,.18.09.09-.6,0,0-.78-1.24,0-1.05a3,3,0,0,1,.68,1.56v.13c.14.78.69-1.19.28-.41,0,0,.27-2,.41-.78,0,0,1.14,1.38-1.88,4.22,0,0-1.42,1-.59.09,0,0,1-1.79.64-2.7,0,0-.51-1-.19-1Z"/><path class="a" d="M102.49,28.3a6.75,6.75,0,0,1-4.39.92s-.83,0-1.1.27c0,0,0-.18-.37-.18-.18,0-.32-.46-1.33-.32,0,0-.41.09-.32-.5a.52.52,0,0,0-.23-.51s-.41-.23.28-.5c0,0,2.7-.23,3.25-5.31,0,0,.14-5,1-5.41,0,0,2.34-1.51.69-1.14,0,0-2.11.68-2.15,5,0,0-.14,1.37-.28-.23,0,0-1.14-4.17,1.24-5.31,0,0,1.24-.69,0-.6,0,0-2.79,1-1.83,5,0,0,1.51,6.64-2.24,7.42a1.4,1.4,0,0,1-1.24.18,3.72,3.72,0,0,0-.87-.23s-.36-.18.32-.73c0,0,1.83-1.47,1.24-6.64a6,6,0,0,1,3.48-6.14s1.69.05.41-.45c0,0-3.39,1.37-5.13,1,0,0-1.55-.55,0,.37a3.08,3.08,0,0,0,1.92-.1s1.1-.18.09.46c0,0-.55.32-.55.78,0,0,0,.32-.41-.09,0,0-1.19-.64-.69-.09,0,0,1.24.87.69,1,0,0-.32.19-1-.45,0,0-.78-.42-.68-.19a8,8,0,0,0,1.19,1.06s.82.45-.19.23c0,0-1.83-1.29-1.42-.6,0,0,2.43,1.51,1.52,1.51,0,0-1.74-.82-.83,0,0,0,1.65,1,.69,1.05,0,0-1.88-1.24-1.15-.37,0,0,2.75,1.69.87,1.19,0,0-2.56-1.37-.73-.14,0,0,2.61,1.56.69,1.1,0,0-2.57-1.32-1.19-.23,0,0,3.34,1.24,1.32,1.52,0,0-2.61-1.29-1.41-.46,0,0,3.06,1.65,1.64,1.83,0,0-3.25-2.1-2.1-1.14,0,0,3.66,2.28,1.74,2.15S89,20.48,90.09,22.54c0,0,1.65,1.92,2.7,2.15,0,0,.73.92-.41.64,0,0-2.7-2-1.93-1.18,0,0,1.65,1.73,1.84,1.64,0,0,.27.74-.55.28,0,0-2.61-2.2-1.52-.87,0,0,2.29,1.92,1.29,1.69,0,0-.69.05-2-1.65,0,0-.64-1-.59,0,0,0,.82,1.69.59,1.87,0,0,0,.79-1.78-.5,0,0-1.19-1,0-1.33a2.6,2.6,0,0,0,.73-3.6c-.06-.09-.12-.16-.18-.24s-1.65-.87-.92-1.1c0,0,1.24-.05.09-.32,0,0-.23-.32.6-.37,0,0,.87,0-.19-.37,0,0-1.64,0-1.14.37,0,0,.59,1.1-1.47,1.15,0,0-.55,1.92-.91,1.23,0,0-.14-.41-.51-.09,0,0-.36.46-.36-.14,0,0-.28-.22-.23.23,0,0,0,.51-.23.28,0,0-.27.36-.37,0,0,0,.6-.87,0-.64,0,0-.45,1.46-.82.91,0,0,0-.87-.28-.36,0,0,.09.55-.23.36,0,0-.13.46-.27.28a1.72,1.72,0,0,1,.14-.87s0-.46-.46.41c0,0-.78,1.51-1,.78,0,0,.18-.69-.41-.32a1.17,1.17,0,0,1-.51.45s-.18,0-.09.28c0,0-.73.18,0,.27a.92.92,0,0,1,.91-.18s.5.28,1.37-.27c0,0,1.88,0,1.84-.69,0,0,1.78,0,1.65-.32,0,0,1-.46,1.23-.09,0,0,1.74.41,1.24,1.42,0,0-.09,1.37-3.48,3.25,0,0,0,.23-.83.05,0,0-1.65.36-1.78,1.14,0,0-.6.59.36.32,0,0,.92.18.69.37a7.78,7.78,0,0,0-2.33,1.51s-.87.73.5.59c0,0,.87-.13.14.46,0,0-2.25,2.2-1.61,2.29,0,0,.64,0,.1.6a10.37,10.37,0,0,0-.83,1.14s-.69.87.78.69c0,0,1.1-.09.23-.55,0,0-1,0-.18-.78,0,0,1.69-1.7,1.83-1.24a1.66,1.66,0,0,0,1.6-.32s.69-.59-.64-.14c0,0-2.66.56-2.06-.31,0,0,1.92-2.11,2.38-1.38,0,0,.46.69,2-.09,0,0,.69-.6-.32-.28,0,0-1.6.46-1.6-.09,0,0,.22-.45-.74-.5,0,0-.82-.37,0-.64,0,0,2.56-1,1.51-1.24,0,0-1.6-.46-.64-.82a2.4,2.4,0,0,1,2.29.23s1.19.41,1.46-.28c0,0,.19-.64-.64-.18,0,0-1.46.09-.55-.55a3.41,3.41,0,0,1,2.57-.05,3.48,3.48,0,0,0,3,1s.73-.37.5.28c0,0,.23.36-.46.5,0,0-1.87-.14-1.55,2.24A1.93,1.93,0,0,0,87.33,33s-2.19,1.1-.22,2.52c0,0,.13.5-.14.64,0,0-1.15,1.14-1.06,1.69,0,0,0,.46.23.55,0,0,.51,1,0,1.06,0,0-.87.36-.73-.64,0,0,.36-1-1.24-1.65a1.41,1.41,0,0,0-1.71,1l0,.18a1.69,1.69,0,0,0,.46,1.19s.5.46-.23.78a4.54,4.54,0,0,1-2.16,1.32s-.86.28-.41-.54c0,0,2-1.2,1-1.1,0,0-1.14.41-.73-.46,0,0,1.69-.41.78-.6,0,0-1.61.69-1.38-.09a1.44,1.44,0,0,1,.92-.73s1.33-.23.09-.37c0,0-1.14.6-.87-.14,0,0,.46-.41.69-.36,0,0,.36-.46-.28-.32,0,0-1,1-1.24.23,0,0-.13-.69-2.28-.65,0,0,0-1.64-2.89-1.46,0,0-2.93-1.83-4.08.82,0,0-2.7-.36-2.7,1.93,0,0,.09,2.24,2.61,1,0,0,2.89-1.47,3.53,1.42a1.1,1.1,0,0,0-.23,1,1.43,1.43,0,0,0,.87,1.19,5,5,0,0,1,.55,2.8s-1.6,2.06.91,2.61c0,0,.87.77.23,1.51,0,0-2.06,1.6-.18,2.52,0,0,.41-.32,2.34.59,0,0,21.34,2.93,30.73,0,0,0,1.6-.78-.19-1.93,0,0-2-.87-.18-2.1,0,0,1.1.41,1.24-1.06a1,1,0,0,0-.37-.87.8.8,0,0,1,.09-1s1.38-3,2-2.43a2.62,2.62,0,0,0,1.28-2s-1-1.37-.46-1.37c0,0,1.06-.59,1.28-.18,0,0,1.2.59,1.11.82a1.14,1.14,0,0,0,1.4.83l.15,0a1.43,1.43,0,0,0,.69-.87s1-.5,0-2.25c0,0-1.6-.45-1.38-1,0,0-.09-1.69-2.56-.74,0,0-.18.46-.78-.77,0,0-.91-1.1-2.52,0,0,0-.22.18-.5-.14,0,0-1.46-.83-2.79,1a2.49,2.49,0,0,0,.09,2.1s.18,1.06-.92.28c0,0,.23-.64-1-1.28a3.26,3.26,0,0,1-.09-1.52s.59-.77,0-1.28c0,0,1.58-1.48,3.39-6.87v-.13s.5-.6-.14-.78c0,0,0-1.06-.82-1.1,0,0-.46-.28.22-.87,0,0,.88-1.51,1.1-1.1,0,0,1.06.87.14-.32,0,0-.55.18-.59-.55a5.17,5.17,0,0,1,.82-2s2.11-.37,2.25-.14c0,0,.17.14.27-.27,0,0,1.14-.74-.18-.28,0,0-2.78,1.53-4.83-2a.75.75,0,0,1-.07-.12s-.37-.14.18.77A5.69,5.69,0,0,1,105.7,23a5,5,0,0,0-.5,1.55,5.51,5.51,0,0,1-1.79,2.29s-1.74,1.47-2.06.32c0,0,3-1.28,3.52-2.93,0,0,.87-1.74.55-2.33,0,0-.22-.69-.32.18a3.72,3.72,0,0,1-1.14,2.7.79.79,0,0,1,.23-.91s.5-1.29-.14-.51c0,0-.73,1.79-.87,1.15,0,0,1.33-2.11,0-6.14,0,0-.64-1.1-.41-.23,0,0,1.93,5.91-1.88,9.11,0,0-2.61-.31-2.93.14,0,0-2.56,1.15-1,1.1a4.58,4.58,0,0,1,2.47-.68,16.58,16.58,0,0,0,3.07.13s.78-.09,0,.32ZM93.56,46.16c0,.31-1.1.55-2.47.55s-2.47-.24-2.47-.55,1.1-.55,2.47-.55S93.56,45.86,93.56,46.16Zm-18.13.37s-.6,1-.78-.23c0,0,0-.78,2.06-1.14a39.09,39.09,0,0,1,18.13-1.38s1.88.14.6.69c0,0-.46.46-.69,0,0,0-.91.55-.87-.09,0,0-1.33.78-1.33-.09,0,0-.91.87-1,0,0,0-.59.82-1.1.09,0,0-1.1.73-1.23-.18,0,0-.14.73-.87.09,0,0-.51.69-.78,0,0,0-1,1-1.1.09,0,0-1.24,1.14-1.33.09,0,0-1.33,1.19-.91-.18,0,0-1.52,1.65-1.47.28,0,0-1.19,1.41-1.24.27,0,0-1,1.46-1.42.46,0,0-.64,1-1.28.46,0,0-1,1.18-1-.37,0,0-.64,1.92-1.28,1,0,0-.78.87-1.1.18ZM88.2,46h0c-.32.27.19.69.19.69.46.45-.83.45-.83.45-.55,0-.32-1.32-.32-1.32.09-.55.83-.28.83-.28C88.66,45.54,88.2,46,88.2,46ZM77.08,48h0c1,.78-.14.78-.14.78-.41.14-.6-.41-.6-.41a.59.59,0,0,1,0-.83.65.65,0,0,1,.27-.17c.78-.1.51.59.51.59Zm2.79-1s-1.06-.37.14-.41c0,0,.5-.33.5.59,0,0,.27.6-.23.6C80.28,47.78,80.28,46.78,79.87,47Zm5.22-.23s.23-.6-.14-.78c0,0-.27-.55.28-.23,0,0,.5.92.14,1.37C85.37,47.13,84.45,47.27,85.09,46.77Zm-2.33-.32c-.1.11-.28.41-.46-.09,0,0-.14-.6.36-.55C82.66,45.81,83.35,45.72,82.76,46.45Zm-.05.66c0,.12-.06.21-.14.21s-.14-.09-.14-.21.07-.21.14-.21S82.71,47,82.71,47.11Zm-1,.23c0,.06-.14.12-.3.12s-.3-.06-.3-.12.13-.11.3-.11S81.71,47.28,81.71,47.34Zm-.55-.64c0,.06-.07.11-.16.11s-.16,0-.16-.11.07-.11.16-.11S81.16,46.64,81.16,46.7Zm.59-.09a.16.16,0,1,1-.16-.16.16.16,0,0,1,.16.16Zm4.63-.69c0,.11-.07.21-.16.21s-.16-.1-.16-.21a.16.16,0,0,1,.32,0Zm.09.8c0,.08-.1.14-.23.14S86,46.8,86,46.72s.11-.13.23-.13S86.47,46.65,86.47,46.72Zm-1.84-.29c0,.18-.26.37-.63.43s-.7,0-.73-.22.26-.36.63-.42S84.6,46.22,84.63,46.43Zm-5.15,1c0,.2-.35.47-.89.61s-1,.09-1.07-.11.35-.47.89-.6S79.41,47.24,79.48,47.43Zm27,3.55h0c-9-3.71-21-2-21-2A23.47,23.47,0,0,0,78,50.69c-2.11,1.06-2.57.42-2.57.42C75.15,48.18,88,47.72,88,47.72c14.93,0,20.2,3.53,20.2,3.53.32.73-1.74-.28-1.74-.28ZM94.11,46.16s-.68-.82-.14-.64c0,0,1,0,.83.32,0,0,.14,1.56-.41,1.33,0,0-.87-.14-.65-.5a.42.42,0,0,0,.37-.48Zm2.73,1.05h0c0,.14.35.42.35.42-.33.36-.77-.11-.77-.11C96.23,46.32,96.84,47.21,96.84,47.21ZM97,46.3h0c-.14,0-.41.37-.41.37-.37-.32.09-.78.09-.78C97.87,45.66,97,46.3,97,46.3Zm2.85,1.33c0,.12-.11.26-.32.31s-.4,0-.43-.13.11-.26.32-.31S99.82,47.5,99.85,47.63Zm.29-1.21c0,.11-.22.15-.39.09s-.3-.21-.26-.32.22-.14.4-.07S100.18,46.32,100.14,46.42Zm1.39,1.39h0c.19-.78.28,0,.28,0-.23.55-.28.45-.28.45-.59,0,0-.41,0-.41Zm1.1-.46a.73.73,0,0,1-.18,1c-.18,0-.23-.36-.18-.64,0,0,.09-.83.36-.37Zm-3.38-.48c0,.24-.42.44-1,.44s-.93-.2-.93-.44.42-.43.93-.43S99.25,46.63,99.25,46.87Zm-3.44-.16a.16.16,0,0,1-.18.14h0c-.1,0-.19-.06-.19-.14s.09-.13.19-.13S95.81,46.64,95.81,46.71Zm5,.76a.16.16,0,0,1-.16.16h0a.16.16,0,1,1,.16-.16Zm2.65.07h0c-.5.32.41,1.23.41,1.23-.68.32-1.09-.45-1.09-.45L103,48a2.84,2.84,0,0,1,0-.92c0-.41.32-.23.32-.23.87.28.13.74.13.74Zm2.38.46s1.79.54.19,1a3.6,3.6,0,0,1-1.83-.74s-.6-.41.09-.5a3,3,0,0,1,1.55.28ZM78.59,43.46s1.37,0,.45.28c0,0-4.12,1.32-3.84.82,0,0-.23-1.42-.55-1.56,0,0-.23-.68.59-.36A4,4,0,0,0,78.59,43.46Zm-7.65-5.63h0c-.37.55-.32,0-.32,0-.28-.18.14-.5.14-.5a1.15,1.15,0,0,1,.36-.1.5.5,0,0,0-.62.34.47.47,0,0,0,0,.17c.18.28-.59.46-.59.46-.69.14-.19-.55-.19-.55a2.13,2.13,0,0,0,.42-.82,1.17,1.17,0,0,1,.13-1.06c1-1.37,2.89-.41,2.89-.41.36.64.41.41.41.41,2.89-.59,2.52,1.19,2.52,1.19,0,.6.32.37.32.37a3.17,3.17,0,0,1,1.88,0A1.18,1.18,0,0,1,79,38.74c-.32.69-.6.1-.6.1,0-.78-.45-.46-.45-.46-.37,1.46.68,1.55.68,1.55h0c1.56,1.88-1.37,2.43-1.37,2.43-.69.37-1.6-.28-1.6-.28-.33,0,0-1,0-1,.09-.36-.42-.87-.42-.87.37-.78-.68-1.78-.68-1.78-1.06-.6-.28.36-.28.36,1.15,1,.42,1.15.42,1.15-1.65-.23-.92-.51-1.24-.64l-.09-.06a1.89,1.89,0,0,1-.32-1c-1,.09-1-.29-1-.29-.14-.32-.82-.13-.82-.13s-.18-.09-.16-.12l-.07.12Zm.13-.16a1.61,1.61,0,0,1,.69-.07,1.4,1.4,0,0,0,.28-.06l0,.06a5.22,5.22,0,0,0-.88.07ZM69,38h0a1.67,1.67,0,0,0,0,.83c-.1.37-.78-.46-.78-.46-.19.46-.37.18-.37.18-.46,0-.37-.91-.37-.91.23-.09.32-.6.32-.6.1-.32.65-.18.65-.18a1.6,1.6,0,0,0,.64-.32C70.25,36.45,69,38,69,38Zm6,3.19a.66.66,0,0,1-1.28,0h0a.59.59,0,0,1,.64-.53A.61.61,0,0,1,75,41.19Zm8.29-.25h0a19.31,19.31,0,0,1-2.06,1.42c-.74-.14.18-.55.18-.55a3.15,3.15,0,0,0,1.79-1.7C84.2,40.11,83.29,40.94,83.29,40.94Zm1.46-2.27a.88.88,0,1,1-1-.75h.12a.81.81,0,0,1,.87.75Zm11.73,2.54a.88.88,0,0,1-.37.09c-.2,0-.36,0-.36-.09s.16-.09.36-.09S96.48,41.12,96.48,41.21Zm-5.77-8.38s.13.55-.46.18c0,0-.83-.09-.28.37,0,0,.83-.05.51.41,0,0-1.65,0-1.28.46a.42.42,0,0,0,.5.18s.73-.18.14.37c0,0-1.28.6-.51.78,0,0,1.06-.87,1-.09,0,0-.68,1,.1.59,0,0,.82-1.19,1.19-.91,0,0,.55.55-.51,1.32,0,0-2.47,1.61-3.57-.64,0,0-.32-.36.6-1.14,0,0,1.19-.51.32-.87A1.31,1.31,0,0,1,88,32.1s.55-1.05,1.7-.23a4.17,4.17,0,0,1,1,.92Zm3.84.6s-1,.45-.32-.42a1.73,1.73,0,0,1,1.24-.73s2-.69,1.92.14c0,0,.37.18-.22,1.28A1.43,1.43,0,0,1,98,34.85s.18,1.19-1.15.73c0,0,.74,1.61-1.14,1.47,0,0-.87-.23-1.19-1.6,0,0-.28-.55-.23.09a7.59,7.59,0,0,0,.64,2.56s.46,1.38-.37.23c0,0-1.74-3.2-.68-3.53a1.61,1.61,0,0,1,1.37.14s1,.42.23-.36c0,0-.92-.28-.27-.42,0,0,1.64.55,1.37-.13,0,0-1.65-.46-1-.64,0,0,1.14-.14-.09-.37,0,0-.88,0-1,.37Zm14.24,13.92a.27.27,0,1,1-.27-.27.27.27,0,0,1,.27.27ZM93.43,27.82a.48.48,0,0,1-.51.44.47.47,0,0,1-.5-.44h0a.46.46,0,0,1,.49-.43h0a.47.47,0,0,1,.51.43ZM94.25,31h0c.55-1.41-.69.46-.69.46-.23.6-.41-1.1-.41-1.1-.69-.73-.23,1.65-.23,1.65-.14.78-.82-1.46-.82-1.46-.6-.6.18,1.73.18,1.73.09.88-.87-1-.87-1-.78-.23.14,1,.14,1,.36,1.42-.42.37-.42.37-.13-.64-1.41-1.42-1.41-1.42-.92-.14-.55-1.24-.55-1.24.55-1.51,1.51-.73,1.51-.73.32.6.59.14.59.14a1.11,1.11,0,0,1,0-1.19c.91-.78,1.37.64,1.37.64.18.64.5.13.5.13A2.19,2.19,0,0,1,94,28c1-.05.59,1.1.59,1.1-.27.23.14.55.14.55.23.45.51-.19.51-.19,1.46-.41,1.64,1.42,1.64,1.42.23.92-2.61,1.24-2.61,1.24-.68.32,0-1.15,0-1.15Zm-.82,3.07a.72.72,0,1,1-.59-.59A.72.72,0,0,1,93.43,34.07ZM88,34.21a.68.68,0,0,1-.54.8.68.68,0,0,1-.26-1.34h.13A.62.62,0,0,1,88,34.21Zm-.69,3.16h0c-.18.87-.46.55-.46.55a.54.54,0,0,1,0-.76l0,0c.64-.78.41.23.41.23Zm.36.18s.19-.91.78-.09c0,0,.29.89-.09,1.15a2,2,0,0,0-.46.46s-.5.5-.41-.23Zm2.57.14s.5-1.15.78-.5A5.5,5.5,0,0,1,90,39a3.7,3.7,0,0,1-3.11,1.65S84,40.25,85,39.71c0,0,1.74.73,2.38.27a4,4,0,0,0,2.89-2.29ZM94.52,43h0c-3.61-1-12.73.19-12.73.19-.91,0-.46-.14-.46-.14a10.84,10.84,0,0,0,2.62-2c.55-.64.73-.32.73-.32,4.07,1.83,5.81-1.28,5.81-1.28.83-.55,1.93-4,1.93-4,.5-.27.68,1.15.68,1.15.6.32.05.73.05.73-.55.41.28.55.28.55.59-.09-.14.41-.14.41-.37.32.68.46.68.46.51,0-.31.55-.31.55.08.64.68.14.82.23.6.4-.14.32-.14.32-.46.46.27.5.27.5.92,0,.1.28.1.28-.46.41.23.46.23.46.5-.05.09.36.09.36-.74.51.78.28.78.28,1.33.41,0,.27,0,.27-.42.51.22.55.22.55,1.06.09.42.32.42.32,0,.6-1.93.09-1.93.09ZM104,39.22c0,.25-.27.44-.61.44s-.62-.19-.62-.44.27-.43.62-.43S104,39,104,39.22Zm-2.52,3.37a.2.2,0,0,1-.19.21h0a.21.21,0,0,1-.21-.21.21.21,0,0,1,.16-.25.21.21,0,0,1,.25.16A.14.14,0,0,1,101.48,42.59Zm8.25-1.24h0a1.59,1.59,0,0,1,1.28-.68c1.19.36-.42,1.65-.42,1.65a.72.72,0,0,1-.86-1ZM108.36,36h0a1.34,1.34,0,0,0-1.66.83c-.45.32.28,1.69.28,1.69-.28.55-.64-.36-.64-.36-.6-.78.23-2.16.23-2.16a2.26,2.26,0,0,1,2-.46c.64.64-.18.46-.18.46Zm2.69.18h0a.93.93,0,0,0-1,0c-.78.64-.83.32-.83.32-.64-.27.14-.64.14-.64,1.19-.73,1.47-.5,1.47-.5,1.14.09,1,1,1,1-.18.87-.78-.19-.78-.19Zm-2,1s.22,1-.24.13a.25.25,0,0,0-.11-.34.29.29,0,0,0-.16,0s-.18-.37.19-.14C108.73,36.81,109.09,37,109.05,37.18Zm2.88,1.28h0c0,.23.23.18.23.18.64.23.23.32.23.32a8.52,8.52,0,0,0-1.33,1,3.33,3.33,0,0,0-1.33.14c-2.06,1.24-2.29.64-2.29.64-.82-.59.41-1.83.41-1.83.42-.09-.73-1-.73-1-.32-.73.55-1.29.55-1.29.55-.32.69.83.69.83.64.92-.78.05-.78.05-.55.32,1.23,1,1.23,1,.37-1.1.28-.09.28-.09-.18.23.41.32.41.32.37,0,.14-.6.14-.6a2.53,2.53,0,0,1-.37-.55l.37-.27c.37-.28.37.36.37.36.36,0,.32,1.06.32,1.06.31.87.36-.83.36-.83.14-.77-.77-.73-.77-.73-.28-.14.18-.41.18-.41a1.06,1.06,0,0,1,1.26.81,1.22,1.22,0,0,1,0,.33c-.14,1.06.14.28.14.28.18-1.28,1.92-1.65,1.92-1.65.46-.18.64.09.64.09a3.33,3.33,0,0,0-2.15,1.88Zm2-.92h-.37c-.68.65-.27,0-.27,0,.13-.32,1-.37,1-.37,1,.6-.32.41-.32.41Zm.6,1.74h0c.08.69.41,0,.41,0a1.14,1.14,0,0,0-1.39-.82l-.13,0c-.91.23-.27-.23-.27-.23,1.69-.64,2.29,0,2.29,0,.78-.19,0,1.37,0,1.37,0,.73.32.37.32.37.73,0,.18.36.18.36a.84.84,0,0,1-1.19.13.67.67,0,0,1-.23-.27,1.77,1.77,0,0,0-.82-1c-.46-.22-.1-.22-.1-.22a.58.58,0,0,1,.82.13.47.47,0,0,1,.06.09Zm2-.32h0c.1.55-.18.74-.18.74-.32.41-.32-.92-.32-.92C116.12,38,116.53,39,116.53,39ZM102,36.77s1-.27.65.33a3.4,3.4,0,0,1-1.93.36s-.64-.41.18-.55Zm.74-1c0,.07-.11.13-.23.13s-.23-.06-.23-.13.1-.14.23-.14S102.74,35.69,102.74,35.77Zm2.1-6.64a.22.22,0,0,1-.18.27.23.23,0,0,1-.27-.17.17.17,0,0,1,0-.1.22.22,0,0,1,.18-.27.23.23,0,0,1,.27.17A.17.17,0,0,1,104.84,29.13Zm-4,1.1a.41.41,0,0,1-.37.45.42.42,0,0,1-.45-.37.41.41,0,0,1,.37-.45h0a.38.38,0,0,1,.41.35Zm1-.12c0,.09-.13.16-.3.16s-.29-.07-.29-.16.13-.16.29-.16S101.84,30,101.84,30.11Zm-2.29,3.51h0c.41.36,2.06,0,2.06,0,.73-.19.55.18.55.18,0,.23-1.1.14-1.1.14-1.87.45-2.29-.51-2.29-.51C99,32.79,99.55,33.62,99.55,33.62Zm2.79-.6s.69-.41.51.18S102,33.34,102.34,33Zm-1.55.14h0c-.69,0-.64-.14-.64-.14-.19-.27,1.28-.18,1.28-.18C102.07,33.11,100.79,33.16,100.79,33.16Zm1.37-.73c0,.12-.16.22-.37.22s-.36-.1-.36-.22.16-.24.36-.24S102.16,32.3,102.16,32.43Zm-1.28-.08c0,.1-.21.17-.46.17s-.46-.07-.46-.17.21-.16.46-.16S100.88,32.27,100.88,32.35Zm1.92-1.46c0,.06-.07.11-.16.11s-.16-.05-.16-.11.07-.11.16-.11S102.8,30.78,102.8,30.89Zm.23.57c0,.08-.11.14-.25.14s-.25-.06-.25-.14.11-.13.25-.13S103,31.38,103,31.46Zm.41.37s.55-.46.69,0c0,0-.78.73-1.42.64,0,0-.64-.19,0-.41a5.44,5.44,0,0,0,.68-.23Zm-4.3.92h0c-.5.18-.37-.19-.37-.19a.84.84,0,0,1,.28-.18C99.78,32.38,99.14,32.75,99.14,32.75Zm5-1.72a.23.23,0,1,1-.25-.21h0a.22.22,0,0,1,.23.21Zm-4.58.8c0,.1-.17.18-.39.18s-.39-.08-.39-.18.18-.18.39-.18S99.56,31.73,99.56,31.83Zm-.14-.62c0,.07-.08.12-.18.12s-.18,0-.18-.12.08-.11.18-.11S99.42,31.1,99.42,31.21Zm2.06-1.74a.14.14,0,0,1-.15.12c-.09,0-.17-.06-.17-.12s.08-.11.17-.11S101.48,29.41,101.48,29.47Zm1.33,1a.12.12,0,0,1-.12.12h0a.12.12,0,1,1-.07-.23h.07a.12.12,0,0,1,.13.11Zm-2.06.87c0,.09-.13.16-.3.16s-.29-.07-.29-.16.13-.16.29-.16S100.75,31.25,100.75,31.34Zm4.12-.64a.18.18,0,1,1-.2-.16h0a.18.18,0,0,1,.18.16Zm-3,.57a.18.18,0,0,1-.18.18h0a.18.18,0,0,1-.18-.16v0a.18.18,0,0,1,.18-.18h0a.18.18,0,0,1,.19.17Zm.91-1.55a.27.27,0,0,1-.27.27.28.28,0,0,1-.11-.55.2.2,0,0,1,.11,0,.27.27,0,0,1,.27.27ZM102.4,29a.18.18,0,0,1-.17.19h0A.19.19,0,0,1,102,29v0a.19.19,0,0,1,.19-.18.18.18,0,0,1,.18.18Zm1.1-.5a.18.18,0,0,1-.18.18h0a.18.18,0,1,1,0-.36h0a.18.18,0,0,1,.18.18Zm.5,1.29a.27.27,0,0,1-.27.27.28.28,0,0,1-.11-.55.2.2,0,0,1,.11,0,.27.27,0,0,1,.27.27Zm-.55-2.34a6.37,6.37,0,0,0,2.43-3.71s.69-3,1-2.93a.53.53,0,0,1,.67-.36.55.55,0,0,1,.33.27,2.37,2.37,0,0,1-.59,1.28s0,1.78-.46,2.11c0,0-1.51,2.92-3.11,3.57,0,0-1.15.68-.19-.23ZM70.94,37.83h-.06c-.07,0,0-.21,0-.21a.18.18,0,0,1-.1-.15h0a.66.66,0,0,1,.12-.17H71a.66.66,0,0,1,.36-.08h.83c.55.24,0,.34-.14.36h-.5c-.37,0-.37.19-.37.22Z"/><path class="a" d="M100.92,13.47a2,2,0,0,1-1,.22,4,4,0,0,1,.62-.46l.42.24Zm2.3-.88h0c.6-.09,0-.5,0-.5-.91-1.1-2.6.32-2.6.32-.68.26-.29.68-.12.82h.07a.92.92,0,0,0,.35.19.39.39,0,0,0,.47-.19A3,3,0,0,1,103.22,12.59Z"/><path class="a" d="M85,29s.92-.28.19-.64c0,0-.6.32-.83.23a3.47,3.47,0,0,0-.91.09s-.14.36.32.36A2.83,2.83,0,0,0,85,29Z"/><path class="a" d="M87.43,29.54h.13s.87-.18.65.18a1.49,1.49,0,0,1-.74.37s-1,.18-1-.37c0,0,0-.21.92-.18Z"/><path class="a" d="M87.06,30.82s.64-.36.64.09c0,0-.46.42-.82.32,0,0-1.06.05-.69-.36Z"/><path class="a" d="M85.5,29.86s1.19,0,.55.37c0,0-.46-.14-.59.09,0,0-.37.55-.55-.05C84.91,30.27,84.82,30,85.5,29.86Z"/><path class="a" d="M84.08,29.63s.32-.27.51.05c0,0,.27.32-.37.36,0,0-.92.23-1.14.09,0,0-.69-.36,0-.45C83.08,29.68,83.77,30,84.08,29.63Z"/><path class="a" d="M85.23,31.83s1,.45.59.69a2.81,2.81,0,0,0-1-.09,7.24,7.24,0,0,1-1,.41s-.78.55-.83.09a.72.72,0,0,1,.46-.5s1.6-.74,1.79-.6Z"/><path class="a" d="M85.14,32.88s1,.73.59.64c-.23,0-.91-.18-1.1,0a4.93,4.93,0,0,1-1.28.73,3.81,3.81,0,0,1-1.14.37s-.92-.19,0-.51c0,0,2.79-1.42,3-1.19Z"/><path class="a" d="M84.08,35s.6,1.18,1,1c0,0,1.1-.23,1,0,0,0-.08.51-1,.51-.18,0-1-.6-1.74,0,0,0-1.14.73-1.28.09,0,0,1-.69,1.19-.64,0,0,.87-.19.69-.37,0,0-.09-.5-1-.27,0,0-1.84.64-2,1,0,0-1.47.27-1-.46,0,0,1,.18,1.28-.18,0,0,1.6-1,1.74-.87s.82-.32,1.14.14Z"/><path class="a" d="M6,95.45c1,0,2.62-1,4.43-3,2.75-3,4-5.8,4-7.61a1.51,1.51,0,0,0-1.55-1.47h0c-1.47,0-3.38,1.28-5.23,3.85C5.73,90,4.87,92.55,4.87,94c0,.91.43,1.48,1.14,1.48Zm19.6-28.3L28.7,67l-13,22.54c-1.53,2.62-2.33,4.33-2.33,5.19a.71.71,0,0,0,.76.66h0c.61,0,2.42-1.38,5.18-4.23,1.14-1.19,1.57-1.86,1.85-1.86s.29,0,.29.19c0,.34-.76,1.24-2.19,2.67-2.52,2.57-4.18,4.13-5.94,4.13-1.29,0-2-.85-2-2.37a9.16,9.16,0,0,1,.24-1.81c-2.24,2.8-4.29,4.18-6,4.18s-2.76-1.76-2.76-4.85a7.63,7.63,0,0,1,.34-2.23c-.43.66-.76,1-1,1s-.29,0-.29-.19a10,10,0,0,1,2.24-2.66c3.23-3.24,6.33-4.67,8.56-4.67a2.23,2.23,0,0,1,2.5,1.92,2.45,2.45,0,0,1,0,.27,3.41,3.41,0,0,1-.19,1Z"/><path class="a" d="M32.31,84.18a.91.91,0,0,0-.79-1h-.06c-1.62,0-5.09,2.61-6.9,7.51,5-1,7.75-4.66,7.75-6.56ZM21,90.12c-.19,0-.24,0-.24-.19a9.7,9.7,0,0,1,1.85-2.33c3.05-3.33,6.09-4.95,8.71-4.95a2.32,2.32,0,0,1,2.59,2,1.1,1.1,0,0,1,0,.18c0,2.48-3.37,5.24-9.56,6.66a13.5,13.5,0,0,0-.23,1.9c0,1.43.71,2.19,1.9,2.19,1.81,0,3.61-1.28,5.85-3.47,1.8-1.81,2.43-2.81,2.76-2.81s.28.1.28.24c0,.33-.85,1.24-2.42,2.86C30,94.92,27.94,96.3,25.8,96.3c-2.33,0-4-2.14-4-5.13a7.91,7.91,0,0,1,.28-2C21.52,89.79,21.18,90.12,21,90.12Z"/><path class="a" d="M80.72,65.11c0-1.14-1.14-2-3.08-2-2.67,0-7.18,1.67-11.94,5.24a22,22,0,0,0-7.85,10.22c15.22-4.47,22.87-9.7,22.87-13.5Zm-21.64,22c-3.18,0-5.32-2.38-5.32-6v-.57c-3.76.85-5.9,1.28-6.28,1.28s-.38-.09-.38-.19c0-.62,2.19-.71,6.71-1.86.52-3.08,2.71-6.51,6.33-9.6,5.89-5,13.79-7.85,17.64-7.85,2.52,0,3.8.9,3.8,2.67,0,4.27-8.13,9.74-23.92,14.5A10.16,10.16,0,0,0,57,82.94c0,2.14,1.14,3.28,2.62,3.28,2.75,0,6-2,10.08-5.66,2.8-2.57,4-4.23,4.66-4.23.24,0,.33,0,.33.19,0,.71-1.28,2.43-2.8,6C68,91.79,61.51,96.3,55.14,96.3c-4,0-6.56-2.18-6.56-4.75A2.61,2.61,0,0,1,51,88.71h.09a1.93,1.93,0,0,1,2,1.86v0c0,1.23-1.33,1.85-1.33,2.8,0,1.29,1.28,2.24,3.51,2.24,5.05,0,8.66-4.42,13.23-13.08-3.62,3-6.81,4.52-9.38,4.52Z"/><path class="a" d="M75.68,95.54c.91,0,2.67-.9,4.47-2.85,2.24-2.38,3.38-5,3.38-6.94,0-1.53-.71-2.38-1.81-2.38-1.42,0-3,1.28-4.84,3.85a12.72,12.72,0,0,0-2.67,6.61C74.21,95,74.68,95.54,75.68,95.54ZM83,91.88a5.71,5.71,0,0,0,4-2.09l.62-.71a.67.67,0,0,1,.38-.15c.14,0,.19.1.19.29a.33.33,0,0,1,0,.24l-.52.62a6.39,6.39,0,0,1-4.85,2.47,4.43,4.43,0,0,1-1.09-.1C79.25,95,77,96.3,75.3,96.3c-2,0-3.18-1.71-3.18-4.94a7.81,7.81,0,0,1,.38-2.19c-.47.62-.81,1-1,1s-.24,0-.24-.19a11.16,11.16,0,0,1,2-2.42c3-3.33,6.13-5,8.36-5a3.14,3.14,0,0,1,3.21,3.06,2.38,2.38,0,0,1,0,.38c0,1.81-1,3.62-2.62,5.76A3.6,3.6,0,0,0,83,91.88Z"/><path class="a" d="M97.85,94.74c0,.56.23.85.76.85.85,0,2.52-1.38,5.13-4,1.38-1.38,1.81-2.24,2.19-2.24.2,0,.29.1.29.19,0,.38-.67,1.1-1.86,2.33-2.85,3-4.8,4.47-5.8,4.47-1.38,0-2.24-1.38-2.24-3.23a7.06,7.06,0,0,1,.19-1.38c-2.66,3.09-4.85,4.61-6.22,4.61-1.53,0-2.62-1.14-2.62-3s1.57-4.23,3.85-7.66c-2.81,2.81-3.85,4.47-4.33,4.47-.13,0-.23,0-.23-.14,0-.38,2-2.71,6-6.9l3.42-.19-4.71,7.37c-1.42,2.29-2.33,3.67-2.33,4.48a.8.8,0,0,0,.75.85h0c2.38,0,6.57-4.14,11.56-12.51l3.19-.19-5.71,9C98.37,93.21,97.85,94,97.85,94.74Z"/><path class="a" d="M112.64,86.84c.9-1.33,1.52-2.19,1.52-2.86,0-.42-.19-.61-.67-.61-1.14,0-2.85,1.57-5.56,4.47-1.29,1.38-1.81,2.33-2.24,2.33a.21.21,0,0,1-.23-.19h0c0-.29.37-.76,1.09-1.57l1.52-1.66c2.43-2.62,4-4.14,5.61-4.14a1.88,1.88,0,0,1,1.86,1.9v.1c0,2-1,3.67-2.29,5.9,1.29-1.24,2.62-2.52,4.1-3.8,1-2.77,1.94-4.14,3.9-4.14.66,0,1.09.33,1.09.76,0,.9-1.38,1.81-3.47,3.38a4.13,4.13,0,0,0-2,3.51,1.16,1.16,0,0,0,1,1.28h.15c2,0,3.18-2.29,3.61-2.29a.28.28,0,0,1,.29.24c0,.58-2.14,2.67-3.81,2.67a1.75,1.75,0,0,1-2-1.48,2.38,2.38,0,0,1,0-.38,7.49,7.49,0,0,1,.62-2.28,54.94,54.94,0,0,0-7,7.7l-3.33.34Z"/><path class="a" d="M128.33,86.84c.91-1.33,1.52-2.14,1.52-2.86,0-.42-.19-.61-.67-.61-1.14,0-2.85,1.57-5.56,4.47-1.29,1.38-1.8,2.33-2.23,2.33a.22.22,0,0,1-.24-.19c0-.29.38-.76,1.09-1.57l1.52-1.66c2.43-2.62,4-4.14,5.62-4.14,1.13,0,1.85.86,1.85,2.23a10.08,10.08,0,0,1-1.9,5.14c4.28-4.8,6.94-7.33,8.66-7.33,1.09,0,1.81.91,1.81,2.29,0,2-1.34,3.56-3,5.8-1.38,1.9-2.18,3.14-2.18,4,0,.56.23.85.76.85.76,0,2.51-1.33,5.13-4,1.39-1.43,1.91-2.24,2.19-2.24a.28.28,0,0,1,.29.24c0,.38-.86,1.24-2.33,2.76-2.62,2.66-4.38,4-5.33,4-1.38,0-2.28-1.38-2.28-3.37s1.23-3.57,3-5.85c1.29-1.62,2.09-2.43,2.09-3.14,0-.38-.14-.52-.52-.52-1.34,0-5.62,4-12.23,12.36l-3.32.33Z"/><path class="a" d="M146.26,95.45c1,0,2.62-1,4.43-3,2.75-3,4-5.8,4-7.61a1.51,1.51,0,0,0-1.55-1.47h0c-1.48,0-3.38,1.28-5.23,3.85A13.09,13.09,0,0,0,145.08,94c0,.91.43,1.48,1.14,1.48Zm11-12.41,3.14-.19-5.23,8.23c-1,1.66-1.76,2.8-1.76,3.7,0,.52.19.76.71.76q1.22,0,5.14-4c1.38-1.38,1.9-2.19,2.18-2.19s.29,0,.29.19-.76,1.24-2.19,2.67c-2.52,2.57-4.18,4.13-5.94,4.13-1.28,0-2-.85-2-2.37a10.07,10.07,0,0,1,.23-1.81c-2.23,2.8-4.28,4.18-6,4.18s-2.76-1.76-2.76-4.85a7.63,7.63,0,0,1,.34-2.23c-.43.66-.77,1-1,1s-.29,0-.29-.19a10,10,0,0,1,2.23-2.66c3.24-3.24,6.33-4.67,8.57-4.67a2.23,2.23,0,0,1,2.5,1.92,2.45,2.45,0,0,1,0,.27,3.41,3.41,0,0,1-.19,1Z"/><path class="a" d="M160,108.81c0,1,.48,1.62,1.38,1.62,2.61,0,5.32-4.23,9.51-12.46C163.51,102.25,160,106.2,160,108.81Zm7.18-12.89c-1,0-2-1.09-2-2.8,0-2.24,1.23-3.76,2.56-5.57s1.9-2.85,1.9-3.57c0-.47-.19-.61-.71-.61-1.05,0-2.76,1.57-5.47,4.52-1.33,1.42-1.86,2.28-2.23,2.28-.15,0-.24-.09-.24-.19,0-.29.38-.76,1.09-1.57l1.53-1.66c2.42-2.62,4-4.19,5.7-4.19,1.24,0,2,1,2,2.52s-.86,3-1.94,4.57c-1.62,2.47-2.62,3.94-2.62,4.66a.9.9,0,0,0,.75,1c1.3,0,6.24-3.71,11.28-12.22l2.9-.19c-3,4.9-5.52,9.36-7.56,13.31,5.28-3.42,7.18-6.85,7.71-6.85a.23.23,0,0,1,.24.22v0c0,.38-2.86,4.19-8.61,7.71-4.91,9.27-9.32,13.84-12.37,13.84a2.15,2.15,0,0,1-2.42-1.84,2,2,0,0,1,0-.54c0-3.33,4.33-6.85,12.7-11.75l3.76-7.23c-3.6,4.09-6.31,6.13-8,6.13Z"/></svg>